<mxfile host="app.diagrams.net" modified="2023-05-01T17:06:34.001Z" agent="Mozilla/5.0 (Macintosh; Intel Mac OS X 10_15_7) AppleWebKit/537.36 (KHTML, like Gecko) Chrome/112.0.0.0 Safari/537.36" etag="-qbEKWyghnmhvHT_ZTG_" version="21.2.3" type="device">
  <diagram id="bx-_b9-Gcl-_Cjds4ZAX" name="Page-1">
    <mxGraphModel dx="824" dy="844" grid="1" gridSize="10" guides="1" tooltips="1" connect="1" arrows="1" fold="1" page="1" pageScale="1" pageWidth="850" pageHeight="1100" math="0" shadow="0">
      <root>
        <mxCell id="0" />
        <mxCell id="1" parent="0" />
        <mxCell id="27wcmQvTUOczs37cr8wY-7" style="edgeStyle=orthogonalEdgeStyle;rounded=0;orthogonalLoop=1;jettySize=auto;html=1;entryX=0.5;entryY=0;entryDx=0;entryDy=0;" parent="1" source="27wcmQvTUOczs37cr8wY-1" target="27wcmQvTUOczs37cr8wY-5" edge="1">
          <mxGeometry relative="1" as="geometry" />
        </mxCell>
        <mxCell id="27wcmQvTUOczs37cr8wY-11" style="edgeStyle=orthogonalEdgeStyle;rounded=0;orthogonalLoop=1;jettySize=auto;html=1;" parent="1" source="27wcmQvTUOczs37cr8wY-1" edge="1">
          <mxGeometry relative="1" as="geometry">
            <mxPoint x="500" y="140" as="targetPoint" />
          </mxGeometry>
        </mxCell>
        <UserObject label="&lt;a href=&quot;(./nodes/yrbs.rmd)&quot;&gt;YRBS&lt;/a&gt;" link="https://github.com/ccani007/toy-flowchart/blob/main/nodes/yrbs.html" id="27wcmQvTUOczs37cr8wY-1">
          <mxCell style="shape=internalStorage;whiteSpace=wrap;html=1;backgroundOutline=1;" parent="1" vertex="1">
            <mxGeometry x="370" y="10" width="80" height="80" as="geometry" />
          </mxCell>
        </UserObject>
        <mxCell id="27wcmQvTUOczs37cr8wY-4" value="" style="endArrow=none;html=1;rounded=0;" parent="1" edge="1">
          <mxGeometry width="50" height="50" relative="1" as="geometry">
            <mxPoint x="409" y="550" as="sourcePoint" />
            <mxPoint x="408.82" y="90" as="targetPoint" />
          </mxGeometry>
        </mxCell>
        <mxCell id="27wcmQvTUOczs37cr8wY-5" value="Train&lt;br&gt;75%" style="shape=internalStorage;whiteSpace=wrap;html=1;backgroundOutline=1;" parent="1" vertex="1">
          <mxGeometry x="40" y="140" width="80" height="80" as="geometry" />
        </mxCell>
        <mxCell id="27wcmQvTUOczs37cr8wY-6" value="Test&lt;br&gt;25%" style="shape=internalStorage;whiteSpace=wrap;html=1;backgroundOutline=1;" parent="1" vertex="1">
          <mxGeometry x="460" y="140" width="80" height="80" as="geometry" />
        </mxCell>
        <mxCell id="27wcmQvTUOczs37cr8wY-14" style="edgeStyle=orthogonalEdgeStyle;rounded=0;orthogonalLoop=1;jettySize=auto;html=1;entryX=0.5;entryY=1;entryDx=0;entryDy=0;entryPerimeter=0;" parent="1" source="27wcmQvTUOczs37cr8wY-12" target="27wcmQvTUOczs37cr8wY-13" edge="1">
          <mxGeometry relative="1" as="geometry" />
        </mxCell>
        <mxCell id="27wcmQvTUOczs37cr8wY-12" value="Hyperparameters" style="whiteSpace=wrap;html=1;shape=mxgraph.basic.oval_callout" parent="1" vertex="1">
          <mxGeometry x="290" y="100" width="120" height="80" as="geometry" />
        </mxCell>
        <mxCell id="27wcmQvTUOczs37cr8wY-19" style="edgeStyle=orthogonalEdgeStyle;rounded=0;orthogonalLoop=1;jettySize=auto;html=1;entryX=0.5;entryY=0;entryDx=0;entryDy=0;" parent="1" source="27wcmQvTUOczs37cr8wY-13" target="27wcmQvTUOczs37cr8wY-18" edge="1">
          <mxGeometry relative="1" as="geometry" />
        </mxCell>
        <mxCell id="27wcmQvTUOczs37cr8wY-13" value="" style="verticalLabelPosition=bottom;verticalAlign=top;html=1;shape=mxgraph.basic.acute_triangle;dx=0.5;rotation=-180;" parent="1" vertex="1">
          <mxGeometry x="160" y="170" width="100" height="70" as="geometry" />
        </mxCell>
        <mxCell id="27wcmQvTUOczs37cr8wY-17" value="&lt;a href=&quot;https://github.com/ccani007/toy-flowchart/blob/main/functions/10-fold-CV.html&quot;&gt;10-Fold&lt;br&gt;CV&lt;/a&gt;" style="text;html=1;strokeColor=none;fillColor=none;align=center;verticalAlign=middle;whiteSpace=wrap;rounded=0;" parent="1" vertex="1">
          <mxGeometry x="180" y="180" width="60" height="30" as="geometry" />
        </mxCell>
        <mxCell id="27wcmQvTUOczs37cr8wY-18" value="Best parameters&amp;nbsp;" style="rounded=1;whiteSpace=wrap;html=1;" parent="1" vertex="1">
          <mxGeometry x="150" y="290" width="120" height="60" as="geometry" />
        </mxCell>
        <mxCell id="27wcmQvTUOczs37cr8wY-71" style="edgeStyle=orthogonalEdgeStyle;rounded=0;orthogonalLoop=1;jettySize=auto;html=1;entryX=0.5;entryY=1;entryDx=0;entryDy=0;" parent="1" source="27wcmQvTUOczs37cr8wY-29" target="27wcmQvTUOczs37cr8wY-70" edge="1">
          <mxGeometry relative="1" as="geometry">
            <Array as="points">
              <mxPoint x="640" y="450" />
            </Array>
          </mxGeometry>
        </mxCell>
        <mxCell id="27wcmQvTUOczs37cr8wY-29" value="" style="rounded=0;whiteSpace=wrap;html=1;" parent="1" vertex="1">
          <mxGeometry x="140" y="400" width="120" height="150" as="geometry" />
        </mxCell>
        <mxCell id="27wcmQvTUOczs37cr8wY-22" value="" style="shape=image;html=1;verticalLabelPosition=bottom;verticalAlign=top;imageAspect=0;image=img/clipart/Gear_128x128.png" parent="1" vertex="1">
          <mxGeometry x="190" y="400" width="50" height="60" as="geometry" />
        </mxCell>
        <mxCell id="27wcmQvTUOczs37cr8wY-23" value="" style="shape=image;html=1;verticalLabelPosition=bottom;verticalAlign=top;imageAspect=0;image=img/clipart/Gear_128x128.png" parent="1" vertex="1">
          <mxGeometry x="150" y="440" width="50" height="60" as="geometry" />
        </mxCell>
        <mxCell id="27wcmQvTUOczs37cr8wY-28" value="" style="shape=image;html=1;verticalLabelPosition=bottom;verticalAlign=top;imageAspect=0;image=img/clipart/Gear_128x128.png" parent="1" vertex="1">
          <mxGeometry x="190" y="460" width="50" height="60" as="geometry" />
        </mxCell>
        <mxCell id="27wcmQvTUOczs37cr8wY-30" value="ML Model&amp;nbsp;" style="text;html=1;strokeColor=none;fillColor=none;align=center;verticalAlign=middle;whiteSpace=wrap;rounded=0;" parent="1" vertex="1">
          <mxGeometry x="170" y="520" width="60" height="30" as="geometry" />
        </mxCell>
        <mxCell id="27wcmQvTUOczs37cr8wY-51" value="" style="endArrow=classic;html=1;rounded=0;exitX=0.5;exitY=1;exitDx=0;exitDy=0;entryX=-0.025;entryY=0.333;entryDx=0;entryDy=0;entryPerimeter=0;" parent="1" source="27wcmQvTUOczs37cr8wY-5" target="27wcmQvTUOczs37cr8wY-29" edge="1">
          <mxGeometry width="50" height="50" relative="1" as="geometry">
            <mxPoint x="50" y="290" as="sourcePoint" />
            <mxPoint x="60" y="630" as="targetPoint" />
            <Array as="points">
              <mxPoint x="80" y="450" />
            </Array>
          </mxGeometry>
        </mxCell>
        <mxCell id="27wcmQvTUOczs37cr8wY-55" value="" style="endArrow=classic;html=1;rounded=0;exitX=0.5;exitY=1;exitDx=0;exitDy=0;" parent="1" source="27wcmQvTUOczs37cr8wY-18" edge="1">
          <mxGeometry width="50" height="50" relative="1" as="geometry">
            <mxPoint x="185" y="390" as="sourcePoint" />
            <mxPoint x="210" y="390" as="targetPoint" />
          </mxGeometry>
        </mxCell>
        <mxCell id="27wcmQvTUOczs37cr8wY-66" value="" style="rounded=0;whiteSpace=wrap;html=1;" parent="1" vertex="1">
          <mxGeometry x="580" y="100" width="120" height="150" as="geometry" />
        </mxCell>
        <mxCell id="27wcmQvTUOczs37cr8wY-67" value="" style="shape=image;html=1;verticalLabelPosition=bottom;verticalAlign=top;imageAspect=0;image=img/clipart/Gear_128x128.png" parent="1" vertex="1">
          <mxGeometry x="630" y="100" width="50" height="60" as="geometry" />
        </mxCell>
        <mxCell id="27wcmQvTUOczs37cr8wY-68" value="" style="shape=image;html=1;verticalLabelPosition=bottom;verticalAlign=top;imageAspect=0;image=img/clipart/Gear_128x128.png" parent="1" vertex="1">
          <mxGeometry x="590" y="140" width="50" height="60" as="geometry" />
        </mxCell>
        <mxCell id="27wcmQvTUOczs37cr8wY-69" value="" style="shape=image;html=1;verticalLabelPosition=bottom;verticalAlign=top;imageAspect=0;image=img/clipart/Gear_128x128.png" parent="1" vertex="1">
          <mxGeometry x="630" y="160" width="50" height="60" as="geometry" />
        </mxCell>
        <mxCell id="27wcmQvTUOczs37cr8wY-70" value="ML Model&amp;nbsp;" style="text;html=1;strokeColor=none;fillColor=none;align=center;verticalAlign=middle;whiteSpace=wrap;rounded=0;" parent="1" vertex="1">
          <mxGeometry x="610" y="220" width="60" height="30" as="geometry" />
        </mxCell>
        <mxCell id="27wcmQvTUOczs37cr8wY-73" value="" style="endArrow=classic;html=1;rounded=0;exitX=1.038;exitY=0.588;exitDx=0;exitDy=0;exitPerimeter=0;entryX=-0.033;entryY=0.58;entryDx=0;entryDy=0;entryPerimeter=0;" parent="1" source="27wcmQvTUOczs37cr8wY-6" target="27wcmQvTUOczs37cr8wY-66" edge="1">
          <mxGeometry width="50" height="50" relative="1" as="geometry">
            <mxPoint x="510" y="270" as="sourcePoint" />
            <mxPoint x="560" y="220" as="targetPoint" />
          </mxGeometry>
        </mxCell>
        <mxCell id="27wcmQvTUOczs37cr8wY-75" value="" style="endArrow=classic;html=1;rounded=0;" parent="1" edge="1">
          <mxGeometry width="50" height="50" relative="1" as="geometry">
            <mxPoint x="700" y="180" as="sourcePoint" />
            <mxPoint x="750" y="180" as="targetPoint" />
          </mxGeometry>
        </mxCell>
        <mxCell id="27wcmQvTUOczs37cr8wY-78" value="" style="edgeStyle=orthogonalEdgeStyle;rounded=0;orthogonalLoop=1;jettySize=auto;html=1;" parent="1" source="27wcmQvTUOczs37cr8wY-76" target="27wcmQvTUOczs37cr8wY-77" edge="1">
          <mxGeometry relative="1" as="geometry" />
        </mxCell>
        <mxCell id="27wcmQvTUOczs37cr8wY-76" value="Prediction" style="rounded=0;whiteSpace=wrap;html=1;rotation=0;" parent="1" vertex="1">
          <mxGeometry x="760" y="137.5" width="60" height="65" as="geometry" />
        </mxCell>
        <mxCell id="27wcmQvTUOczs37cr8wY-77" value="Evaluation" style="whiteSpace=wrap;html=1;aspect=fixed;" parent="1" vertex="1">
          <mxGeometry x="750" y="250" width="80" height="80" as="geometry" />
        </mxCell>
        <mxCell id="27wcmQvTUOczs37cr8wY-79" value="" style="endArrow=classic;html=1;rounded=0;entryX=0.87;entryY=0.657;entryDx=0;entryDy=0;entryPerimeter=0;" parent="1" target="27wcmQvTUOczs37cr8wY-13" edge="1">
          <mxGeometry width="50" height="50" relative="1" as="geometry">
            <mxPoint x="120" y="195" as="sourcePoint" />
            <mxPoint x="170" y="145" as="targetPoint" />
          </mxGeometry>
        </mxCell>
        <mxCell id="27wcmQvTUOczs37cr8wY-80" value="Experts" style="shape=umlActor;verticalLabelPosition=bottom;verticalAlign=top;html=1;outlineConnect=0;" parent="1" vertex="1">
          <mxGeometry x="280" y="175" width="30" height="60" as="geometry" />
        </mxCell>
      </root>
    </mxGraphModel>
  </diagram>
</mxfile>
